<svg id="Layer_1" xmlns="http://www.w3.org/2000/svg" xmlns:xlink="http://www.w3.org/1999/xlink" viewBox="0 0 172.9 36.9"><style>.st2{fill:#003354}</style><path fill="#769fc7" d="M22.6 10.8l-9.9 21.9-9.9-21.9H0l11.9 25.8h1.7l11.7-25.8z"/><defs><path id="SVGID_1_" d="M0 0h172.9v36.9H0z"/></defs><clipPath id="SVGID_2_"><use xlink:href="#SVGID_1_" overflow="visible"/></clipPath><path d="M27.9 22.2c.5-5.6 4.4-9.5 9.6-9.5 5.5 0 8.7 4.7 9.2 9.5H27.9zm9.7-12c-7 0-12.3 5.7-12.3 13.4S30.7 37 38.1 37c4.1 0 7.9-2 10.4-5.6l.4-.6-2-1.4-.4.6c-1.6 2.2-4.6 4.5-8.3 4.5-5.6 0-9.7-4-10.2-9.9h21.5v-.9c-.1-6.7-4.2-13.5-11.9-13.5m27.6 0c-4.1 0-7.2 2.4-9.1 5.4v-4.9h-2.5v25.6h2.5V23.2c0-4.4 3.4-10.5 8.9-10.5h1V11l-.1-.8h-.7z" clip-path="url(#SVGID_2_)" fill="#769fc7"/><path class="st2" d="M90.1 1.4h2.5v3.7h-2.5zm.3 9.7h2v25.1h-2z"/><defs><path id="SVGID_3_" d="M0 0h172.9v36.9H0z"/></defs><clipPath id="SVGID_4_"><use xlink:href="#SVGID_3_" overflow="visible"/></clipPath><path d="M110.1 34.7c-6.1 0-10.5-4.7-10.5-11.2 0-6.4 4.4-11 10.5-11 5.9 0 10.6 4.9 10.6 11.2.1 6.2-4.6 11-10.6 11m10.6-18.1c-2.1-3.8-6-6.1-10.6-6.1-7.1 0-12.5 5.6-12.5 13.2 0 7.4 5.4 13.1 12.5 13.1 4.6 0 8.5-2.3 10.6-6.1v5.5h2V0h-2v16.6zm18.8-4.2c5.8 0 9.1 5 9.5 10h-19.3c.4-5.9 4.4-10 9.8-10m.1-1.9c-6.9 0-12 5.6-12 13.1 0 7.6 5.3 13.1 12.5 13.1 4.1 0 7.8-2 10.2-5.5l.3-.4-1.6-1.1-.3.4c-1.6 2.2-4.7 4.6-8.5 4.6-5.8 0-10.1-4.2-10.4-10.4h21.5v-.7c-.2-6.5-4.1-13.1-11.7-13.1m24.3 11.8c-4-1.1-7.3-2.2-7.3-5.1 0-2.7 2.9-4.6 6.8-4.6 2.5 0 5.3.9 7.5 2.5l.4.3 1.1-1.7-.4-.3c-2.5-1.7-5.7-2.8-8.7-2.8-5.1 0-8.9 2.8-8.9 6.7 0 4.1 3.6 5.5 8.8 6.9l.2.1c3.8 1.1 7.3 2.1 7.3 5.4 0 2.8-3 4.8-7.1 4.8-3.1 0-6.3-1.2-8.8-3.3l-.4-.3-1.2 1.6.4.3c2.7 2.3 6.5 3.7 10 3.7 5.3 0 9.2-2.9 9.2-6.9.1-4.4-4-5.9-8.9-7.3" clip-path="url(#SVGID_4_)" fill="#003354"/><path class="st2" d="M69 1.4v34.7h2.1V20H82l.4-2H71.1V3.4h14.6l.5-2z"/></svg>